<svg width="29" height="31" viewBox="0 0 29 31" fill="none" xmlns="http://www.w3.org/2000/svg">
<path d="M23.5625 10.6395C23.049 10.6395 22.6188 10.4693 22.272 10.1288C21.924 9.78955 21.75 9.3687 21.75 8.86628V7.09302H19.9375C19.424 7.09302 18.9938 6.92338 18.647 6.5841C18.299 6.24363 18.125 5.82219 18.125 5.31977C18.125 4.81735 18.299 4.3959 18.647 4.05544C18.9938 3.71615 19.424 3.54651 19.9375 3.54651H21.75V1.77326C21.75 1.27083 21.924 0.849389 22.272 0.508924C22.6188 0.169642 23.049 0 23.5625 0C24.076 0 24.5062 0.169642 24.853 0.508924C25.201 0.849389 25.375 1.27083 25.375 1.77326V3.54651H27.1875C27.701 3.54651 28.1312 3.71615 28.478 4.05544C28.826 4.3959 29 4.81735 29 5.31977C29 5.82219 28.826 6.24363 28.478 6.5841C28.1312 6.92338 27.701 7.09302 27.1875 7.09302H25.375V8.86628C25.375 9.3687 25.201 9.78955 24.853 10.1288C24.5062 10.4693 24.076 10.6395 23.5625 10.6395ZM2.5375 30.8547C1.93333 31.0911 1.35937 31.0391 0.815625 30.6986C0.271875 30.3593 0 29.8646 0 29.2144V3.54651C0 2.57122 0.35525 1.73602 1.06575 1.0409C1.77504 0.346968 2.62812 0 3.625 0H16.3125C15.7083 0.886627 15.2552 1.73661 14.9531 2.54994C14.651 3.36209 14.5 4.28537 14.5 5.31977C14.5 7.44767 15.1869 9.32437 16.5608 10.9499C17.9359 12.5753 19.6656 13.595 21.75 14.0087C22.4448 14.0974 23.049 14.1417 23.5625 14.1417C24.076 14.1417 24.6802 14.0974 25.375 14.0087V29.2144C25.375 29.8646 25.1031 30.3593 24.5594 30.6986C24.0156 31.0391 23.4417 31.0911 22.8375 30.8547L12.6875 26.5988L2.5375 30.8547Z" fill="#51443C"/>
</svg>
