<svg width="31" height="31" viewBox="0 0 31 31" fill="none" xmlns="http://www.w3.org/2000/svg">
<path d="M19.375 27.125L11.625 24.4125L5.61875 26.7375C5.18819 26.9097 4.78993 26.8611 4.42396 26.5915C4.05799 26.3229 3.875 25.9625 3.875 25.5104V7.42708C3.875 7.14722 3.95594 6.89965 4.11783 6.68438C4.27886 6.4691 4.49931 6.30764 4.77917 6.2L11.625 3.875L19.375 6.5875L25.3812 4.2625C25.8118 4.09028 26.2101 4.1385 26.576 4.40717C26.942 4.67669 27.125 5.0375 27.125 5.48958V23.5729C27.125 23.8528 27.0441 24.1003 26.8822 24.3156C26.7211 24.5309 26.5007 24.6924 26.2208 24.8L19.375 27.125ZM18.0833 23.9604V8.84792L12.9167 7.03958V22.1521L18.0833 23.9604Z" fill="#51443C"/>
</svg>
